# xmcd
# 
# Track frame offsets:
#     150
#     14457
#     34482
#     49137
#     65595
#     84292
#     96847
#     118662
#     130727
#     146165
#     163732
#     183350
#     196142
#     209122
#     221820
#     233242
#     245810
# 
# Disc length: 3450
# 
# Revision: 9
# Processed by: cddbd v1.5.2PL0 Copyright (c) Steve Scherf et al.
# Submitted via: fre:ac v1.0.31
# 
DISCID=070d7811
DTITLE=The Nitty Gritty Dirt Band - Will the Circle Be Unbroken Disc 1
DYEAR=1972
DGENRE=Country
TTITLE0=Grand Ole Opry Song
TTITLE1=Keep On the Sunny Side
TTITLE2=Nashville Blues
TTITLE3=You Are My Flower
TTITLE4=The Precious Jewel
TTITLE5=Dark as a Dungeon
TTITLE6=Tennessee Stud
TTITLE7=Black Mountain Rag
TTITLE8=Wreck on the Highway
TTITLE9=The End of the World
TTITLE10=I Saw the Light
TTITLE11=Sunny Side of the Mountain
TTITLE12=Nine Pound Hammer
TTITLE13=Losin' You (Might Be the Best Thing Yet)
TTITLE14=Honky Tonkin'
TTITLE15=You Don't Know My Mind
TTITLE16=My Walkin' Shoes
EXTD=
EXTT0=
EXTT1=
EXTT2=
EXTT3=
EXTT4=
EXTT5=
EXTT6=
EXTT7=
EXTT8=
EXTT9=
EXTT10=
EXTT11=
EXTT12=
EXTT13=
EXTT14=
EXTT15=
EXTT16=
PLAYORDER=
